<mxfile host="app.diagrams.net" modified="2024-05-20T19:30:52.735Z" agent="Mozilla/5.0 (Windows NT 10.0; Win64; x64) AppleWebKit/537.36 (KHTML, like Gecko) Chrome/124.0.0.0 Safari/537.36" etag="hjBmonPtDXWVFThR6sUX" version="24.2.5" type="github">
  <diagram name="PÃ¡gina-1" id="VHsQ3btT1pPWsbqFPTow">
    <mxGraphModel dx="1674" dy="738" grid="1" gridSize="10" guides="1" tooltips="1" connect="1" arrows="1" fold="1" page="1" pageScale="1" pageWidth="827" pageHeight="1169" math="0" shadow="0">
      <root>
        <mxCell id="0" />
        <mxCell id="1" parent="0" />
        <mxCell id="2ucMhM5c4KOjNj2i2VdB-1" value="Sistema de gestion" style="ellipse;whiteSpace=wrap;html=1;aspect=fixed;" vertex="1" parent="1">
          <mxGeometry x="370" y="430" width="90" height="90" as="geometry" />
        </mxCell>
        <mxCell id="2ucMhM5c4KOjNj2i2VdB-2" value="Stock" style="rounded=1;whiteSpace=wrap;html=1;" vertex="1" parent="1">
          <mxGeometry x="460" y="330" width="110" height="50" as="geometry" />
        </mxCell>
        <mxCell id="2ucMhM5c4KOjNj2i2VdB-3" value="Facturacion" style="rounded=1;whiteSpace=wrap;html=1;" vertex="1" parent="1">
          <mxGeometry x="570" y="410" width="110" height="50" as="geometry" />
        </mxCell>
        <mxCell id="2ucMhM5c4KOjNj2i2VdB-4" value="Control de precios" style="rounded=1;whiteSpace=wrap;html=1;" vertex="1" parent="1">
          <mxGeometry x="320" y="330" width="110" height="50" as="geometry" />
        </mxCell>
        <mxCell id="2ucMhM5c4KOjNj2i2VdB-5" value="" style="endArrow=classic;html=1;rounded=0;entryX=0.5;entryY=1;entryDx=0;entryDy=0;" edge="1" parent="1" target="2ucMhM5c4KOjNj2i2VdB-4">
          <mxGeometry width="50" height="50" relative="1" as="geometry">
            <mxPoint x="414" y="430" as="sourcePoint" />
            <mxPoint x="464" y="380" as="targetPoint" />
          </mxGeometry>
        </mxCell>
        <mxCell id="2ucMhM5c4KOjNj2i2VdB-7" value="" style="endArrow=classic;html=1;rounded=0;" edge="1" parent="1" source="2ucMhM5c4KOjNj2i2VdB-1">
          <mxGeometry width="50" height="50" relative="1" as="geometry">
            <mxPoint x="590" y="450" as="sourcePoint" />
            <mxPoint x="500" y="380" as="targetPoint" />
          </mxGeometry>
        </mxCell>
        <mxCell id="2ucMhM5c4KOjNj2i2VdB-8" value="" style="endArrow=classic;html=1;rounded=0;entryX=0;entryY=0.5;entryDx=0;entryDy=0;" edge="1" parent="1" target="2ucMhM5c4KOjNj2i2VdB-3">
          <mxGeometry width="50" height="50" relative="1" as="geometry">
            <mxPoint x="460" y="470" as="sourcePoint" />
            <mxPoint x="510" y="390" as="targetPoint" />
            <Array as="points">
              <mxPoint x="460" y="470" />
            </Array>
          </mxGeometry>
        </mxCell>
      </root>
    </mxGraphModel>
  </diagram>
</mxfile>
